<svg xmlns="http://www.w3.org/2000/svg" viewBox="0 0 32 32">
  <rect width="32" height="32" rx="6" fill="#0a0a0a"/>
  <g transform="translate(4, 3) scale(1.5)">
    <path d="M8 2C5.5 5 4 8.5 4 12c0 4 2.5 6 4 6s4-2 4-6C12 8.5 10.5 5 8 2z" fill="#22c55e" opacity="0.9"/>
    <path d="M8 6C6.5 8 5.5 10 5.5 12c0 2.5 1.2 3.5 2.5 3.5s2.5-1 2.5-3.5C10.5 10 9.5 8 8 6z" fill="#16a34a"/>
    <line x1="8" y1="7" x2="8" y2="16" stroke="#0a0a0a" stroke-width="0.6" opacity="0.5"/>
    <line x1="8" y1="10" x2="6" y2="8.5" stroke="#0a0a0a" stroke-width="0.4" opacity="0.4"/>
    <line x1="8" y1="12" x2="10" y2="10.5" stroke="#0a0a0a" stroke-width="0.4" opacity="0.4"/>
  </g>
</svg>
